# xmcd
#
# Track frame offsets: 
#        150
#        12732
#        25505
#        34559
#        46186
#        58663
#        71273
#        84142
#        94347
#        106786
#        117622
#        129223
#
# Disc length: 1874 seconds
#
# Revision: 0
# Processed by: cddbd v1.5.2PL0 Copyright (c) Steve Scherf et al.
# Submitted via: ExactAudioCopy v1.0b1
#
DISCID=8c07500c
DTITLE=Porter Wagoner - Satisfied Mind
DYEAR=1956
DGENRE=Country
TTITLE0=A Satisfied Mind
TTITLE1=My Bonfire
TTITLE2=I Like Girls
TTITLE3=Ivory Tower
TTITLE4=Company's Comin'
TTITLE5=Born To Lose
TTITLE6=Midnight
TTITLE7=That's It
TTITLE8=I Guess I'm Crazy (For Loving You)
TTITLE9=I'm Stepping Out Tonight
TTITLE10=Living In The Past
TTITLE11=Tricks Of The Trade
EXTD=
EXTT0=
EXTT1=
EXTT2=
EXTT3=
EXTT4=
EXTT5=
EXTT6=
EXTT7=
EXTT8=
EXTT9=
EXTT10=
EXTT11=
PLAYORDER=
